<?xml version="1.0" standalone="no"?>
<!DOCTYPE svg PUBLIC "-//W3C//DTD SVG 20010904//EN"
 "http://www.w3.org/TR/2001/REC-SVG-20010904/DTD/svg10.dtd">
<svg version="1.0" xmlns="http://www.w3.org/2000/svg"
 width="460.000000pt" height="460.000000pt" viewBox="0 0 460.000000 460.000000"
 preserveAspectRatio="xMidYMid meet">
<metadata>
Created by potrace 1.14, written by Peter Selinger 2001-2017
</metadata>
<g transform="translate(0.000000,460.000000) scale(0.100000,-0.100000)"
fill="#000000" stroke="none">
<path d="M12 4575 c-8 -18 -12 -129 -12 -364 l0 -338 30 5 c84 12 200 -110
186 -196 -3 -19 -12 -42 -20 -51 -9 -10 -14 -38 -15 -74 0 -31 -5 -75 -11 -98
-13 -47 -74 -119 -101 -119 -10 0 -30 -5 -44 -12 l-25 -11 0 -1624 c0 -1292 3
-1623 13 -1623 6 0 26 -7 42 -16 58 -30 104 -18 105 27 0 19 45 61 88 83 17 9
32 20 32 24 0 5 27 8 60 7 33 -1 60 3 60 7 0 5 14 -4 30 -19 17 -14 30 -32 30
-39 0 -7 16 -22 35 -34 19 -12 35 -28 35 -36 0 -8 7 -14 16 -14 9 0 24 -10 33
-22 l18 -21 11 31 c6 18 14 32 18 32 6 0 0 -32 -12 -64 -6 -14 34 -16 413 -16
l419 0 18 118 c25 160 53 278 82 335 13 26 23 51 22 55 -1 4 1 21 5 37 13 54
39 184 42 205 0 8 7 25 13 37 7 12 12 28 12 36 0 7 17 33 37 57 l38 44 1 117
c1 103 5 123 24 154 12 19 29 42 37 50 20 21 4 19 -19 -2 -25 -23 -29 -15 -12
32 8 22 28 94 45 160 17 66 52 179 79 250 l48 130 -13 75 c-7 41 -13 64 -14
50 l-2 -25 -13 24 c-13 23 -14 23 -19 5 -4 -17 -5 -17 -6 -1 0 10 -6 15 -11
12 -6 -3 -10 -2 -10 2 0 5 -6 17 -13 27 -10 14 -18 15 -40 7 -34 -13 -97 13
-97 40 0 9 -7 19 -15 23 -8 3 -25 28 -37 56 -12 27 -30 52 -40 56 -10 3 -18
14 -18 24 0 29 -45 68 -86 76 -24 4 -38 13 -41 25 -7 24 -14 24 -36 -1 -19
-23 -56 -26 -76 -7 -11 9 -14 9 -18 0 -6 -15 -33 -17 -33 -3 0 6 -7 10 -15 10
-8 0 -15 7 -15 15 0 8 -4 15 -9 15 -5 0 -22 12 -38 28 -16 15 -37 32 -47 37
-14 8 -18 22 -18 53 0 23 -3 44 -9 47 -5 4 -9 18 -9 33 0 15 -4 23 -8 17 -12
-17 -72 -35 -72 -22 0 7 -5 4 -11 -5 -8 -14 -22 -16 -90 -13 -57 3 -91 0 -116
-10 -21 -9 -40 -12 -47 -6 -6 4 -28 11 -48 15 -21 4 -38 11 -38 16 0 6 -6 10
-14 10 -7 0 -19 14 -27 31 -11 27 -10 33 3 43 8 6 13 17 10 24 -2 7 5 16 17
19 26 7 26 16 4 39 -10 9 -19 35 -20 57 -2 22 -10 54 -19 71 -18 35 -29 146
-14 146 5 0 15 18 21 41 10 33 10 42 -1 49 -20 12 -4 43 20 37 12 -3 17 -1 14
5 -4 6 6 8 25 5 32 -5 33 -4 46 59 7 36 79 109 99 101 8 -3 23 1 34 9 11 8 49
16 84 19 35 3 82 14 105 25 37 17 45 18 75 6 18 -7 61 -14 96 -14 35 -1 71 -6
82 -12 10 -5 25 -10 34 -10 8 0 27 -5 43 -12 15 -6 30 -12 33 -12 3 -1 15 -11
28 -23 20 -20 20 -23 4 -23 -47 0 -55 -49 -13 -79 17 -12 31 -33 35 -53 13
-66 58 -168 83 -188 40 -31 50 -23 17 13 -45 47 -88 153 -54 132 6 -4 8 -10 5
-15 -3 -5 -1 -20 6 -32 16 -30 49 -64 49 -50 0 6 -5 14 -10 17 -16 10 -12 35
5 29 22 -9 21 72 -2 94 -23 23 -57 22 -65 -3 -4 -13 -6 -5 -7 23 -1 23 4 42 9
42 6 0 10 -7 10 -15 0 -8 7 -15 15 -15 18 0 20 16 3 24 -7 4 2 4 20 1 51 -7
42 22 -10 32 l-43 9 25 16 c14 9 50 19 80 23 38 4 49 2 35 -4 -17 -8 -17 -10
-3 -10 9 -1 20 4 23 9 5 8 11 7 21 -1 17 -14 8 -31 -14 -28 -45 4 -59 -16 -40
-57 9 -20 9 -27 -1 -33 -9 -6 -8 -9 6 -13 24 -6 115 20 108 31 -6 11 4 41 14
41 3 0 11 -10 16 -22 7 -16 20 -24 45 -27 29 -3 32 -5 15 -11 -19 -8 -19 -9 1
-9 12 -1 38 6 57 14 20 8 39 15 42 15 11 0 4 -30 -7 -31 -35 -2 -61 -11 -87
-30 -15 -11 -45 -26 -67 -34 l-39 -14 31 -1 c42 0 113 26 140 51 29 27 35 14
21 -46 -14 -63 -68 -119 -122 -129 -21 -4 -72 -8 -114 -8 l-76 -1 108 -15 c82
-11 113 -12 130 -3 19 9 15 10 -23 6 l-45 -5 49 17 c61 22 94 71 121 181 19
80 34 102 69 102 29 0 40 -13 56 -65 7 -22 16 -47 21 -55 5 -8 13 -24 18 -35
5 -11 18 -29 30 -39 11 -11 21 -28 21 -38 0 -11 11 -34 25 -52 25 -33 26 -65
1 -67 -35 -3 -72 4 -82 17 -18 23 -66 17 -104 -14 -46 -38 -62 -42 -85 -26
-23 17 -25 17 -49 -1 -19 -14 -19 -15 -1 -35 22 -24 44 -26 60 -3 11 15 13 15
24 -5 6 -12 18 -22 26 -22 8 0 15 -5 15 -11 0 -5 5 -7 11 -3 6 3 14 1 18 -5
14 -22 93 -16 153 11 l58 27 0 60 c0 34 -5 63 -11 67 -8 5 -6 10 5 16 9 5 20
6 26 3 5 -3 44 -8 87 -10 43 -2 68 -1 56 1 -13 3 -23 12 -23 20 0 10 -13 14
-45 14 -29 0 -45 -4 -45 -12 0 -9 -2 -10 -8 -2 -4 6 -16 14 -27 18 -43 14 -61
41 -76 113 -12 57 -13 70 -3 62 14 -11 30 -13 194 -23 94 -5 94 -5 45 8 l-50
14 48 1 c26 1 47 6 47 11 0 6 5 10 12 10 6 0 19 6 27 14 15 14 40 20 70 17 25
-2 -4 -164 -34 -195 -8 -8 -40 -20 -71 -26 -32 -7 -52 -16 -47 -21 10 -10 91
12 126 35 32 22 47 57 61 146 l12 75 58 1 c32 0 61 6 65 12 11 18 65 -1 70
-24 6 -35 40 -72 82 -88 l41 -17 -4 -49 c-3 -31 -1 -50 5 -50 6 0 8 -2 6 -5
-3 -2 -15 -2 -27 2 -16 4 -22 13 -22 34 0 19 -5 29 -15 29 -8 0 -15 -8 -15
-17 0 -15 -2 -15 -9 -4 -9 14 -60 25 -62 13 0 -4 -2 -20 -3 -35 -1 -16 -8 -32
-15 -37 -8 -5 -12 -18 -9 -34 6 -31 -17 -37 -25 -6 -7 26 -27 26 -27 0 0 -11
-7 -23 -15 -26 -8 -4 -15 -13 -15 -20 0 -8 -8 -17 -17 -21 -22 -7 -48 -34 -55
-53 -2 -8 -18 -14 -39 -14 l-34 -1 0 -63 c-1 -35 3 -66 7 -68 4 -3 8 -10 8
-15 0 -6 -5 -7 -12 -3 -8 5 -9 2 -5 -9 3 -9 2 -19 -4 -22 -5 -4 -7 -11 -4 -16
4 -5 1 -9 -4 -9 -6 0 -11 -8 -11 -18 0 -10 -7 -27 -15 -38 -8 -10 -15 -28 -15
-39 0 -12 -6 -27 -12 -33 -10 -10 -10 -15 2 -22 8 -5 11 -10 5 -10 -11 0 -35
-46 -35 -67 0 -7 6 -13 13 -14 6 0 2 -4 -11 -9 -12 -5 -25 -18 -29 -27 -16
-42 -87 -97 -138 -107 -5 -1 -16 -5 -24 -10 -8 -5 -16 -3 -22 5 -6 10 -25 13
-66 11 -85 -4 -97 -6 -105 -17 -5 -6 -8 -5 -8 4 0 11 -3 11 -15 1 -8 -7 -22
-10 -30 -6 -9 3 -14 2 -11 -3 9 -15 -56 -41 -75 -30 -25 13 -34 -7 -15 -34 30
-42 43 -57 53 -57 5 0 20 -10 33 -22 13 -12 38 -29 54 -38 18 -9 31 -23 32
-35 1 -11 2 -25 3 -31 2 -20 67 -44 118 -45 26 0 42 -3 35 -6 -19 -8 -14 -27
11 -38 16 -7 22 -19 23 -43 1 -18 4 -35 7 -38 10 -10 58 6 52 17 -4 6 2 8 18
4 20 -5 24 -3 23 17 -1 15 4 22 13 20 8 -2 11 3 8 12 -4 11 -1 13 11 10 13 -5
13 -2 -3 11 -20 16 -20 17 -1 30 11 8 35 13 57 11 28 -2 36 0 32 10 -3 8 1 14
8 15 8 0 27 2 43 4 28 4 28 4 10 -17 -11 -12 31 21 91 74 154 135 367 347 362
361 -2 7 -16 13 -30 15 -31 4 -32 -10 4 205 l23 137 32 0 c38 0 64 9 64 21 0
5 -17 7 -38 3 -33 -5 -38 -3 -38 14 0 12 5 18 13 15 7 -3 13 2 13 10 0 8 -6
17 -12 20 -9 3 -6 10 10 22 30 22 28 36 -5 33 -32 -3 -40 23 -9 28 10 1 23 7
29 13 6 6 19 11 28 11 20 0 51 46 71 106 15 42 13 68 -3 58 -5 -3 -8 0 -7 7 2
7 -3 13 -11 14 -8 0 -17 9 -22 20 -4 11 -8 14 -8 7 -1 -10 -4 -10 -16 2 -19
18 -20 37 -2 30 8 -3 20 2 27 11 7 8 16 15 21 15 13 0 41 -60 35 -76 -3 -8 -2
-14 3 -14 18 0 22 -81 5 -116 -9 -18 -19 -34 -23 -34 -3 0 -21 -14 -39 -30
-43 -38 -40 -64 8 -66 19 -1 29 1 23 3 -19 7 -16 24 3 21 18 -3 24 6 49 67 9
22 21 48 26 58 17 31 20 215 5 245 -24 47 -51 65 -85 57 -24 -5 -31 -3 -31 9
0 15 17 21 48 17 8 -1 16 7 19 17 4 16 10 18 31 13 15 -4 27 -12 27 -17 0 -5
4 -15 8 -21 5 -9 3 -13 -7 -13 -9 0 -16 -4 -16 -10 0 -5 7 -10 16 -10 11 0 13
-6 9 -19 -3 -11 -1 -22 5 -26 5 -3 10 2 10 13 0 26 46 35 77 15 13 -9 21 -18
19 -21 -10 -9 24 -60 44 -65 11 -3 20 -2 20 1 0 4 18 7 40 7 23 0 40 -5 40
-11 0 -7 7 -14 15 -18 11 -4 15 -21 15 -67 0 -42 6 -71 19 -93 22 -37 35 -96
21 -96 -6 0 -10 -19 -11 -42 0 -24 -4 -63 -7 -87 -6 -41 -10 -45 -50 -60 -39
-14 -47 -14 -93 2 -27 10 -54 15 -59 12 -14 -9 -12 -42 3 -49 6 -3 0 -4 -16
-1 -30 6 -31 4 -17 -44 10 -35 -2 -65 -27 -67 -29 -2 -33 -5 -33 -24 0 -11 -7
-20 -15 -20 -8 0 -15 5 -15 12 0 9 -3 9 -12 0 -8 -8 -8 -15 2 -27 10 -12 10
-15 -4 -15 -9 0 -27 -6 -39 -14 -12 -8 -35 -14 -50 -14 -15 0 -30 -2 -33 -5
-3 -3 8 -31 25 -62 17 -32 31 -71 31 -86 0 -37 15 -36 64 1 55 41 136 43 199
3 54 -34 62 -45 88 -121 22 -66 21 -106 -7 -190 -19 -58 -4 -83 46 -78 35 3
126 -35 113 -48 -4 -3 0 -6 8 -6 14 0 59 -47 59 -61 0 -5 -8 -6 -17 -3 -10 3
-6 -2 9 -11 16 -8 28 -18 28 -21 0 -3 -5 -2 -10 1 -6 3 -18 -1 -27 -11 -16
-16 -16 -16 7 -10 18 5 21 5 10 -3 -12 -8 -10 -13 10 -29 58 -45 74 -61 65
-62 -6 0 -24 12 -40 28 -38 35 -74 54 -88 45 -6 -4 -8 0 -4 10 4 12 1 17 -9
17 -9 0 -37 15 -63 34 -25 18 -73 48 -106 67 -90 50 -145 94 -167 136 -11 21
-24 40 -27 43 -11 8 -93 120 -125 169 -30 46 -73 91 -88 91 -4 0 -6 -11 -2
-24 7 -30 -10 -63 -72 -143 -27 -34 -69 -92 -94 -128 -25 -37 -58 -82 -73
-101 -29 -34 -93 -126 -174 -249 -25 -38 -52 -79 -59 -90 -47 -67 -75 -113
-137 -225 -94 -168 -129 -239 -121 -251 3 -5 1 -8 -4 -7 -6 2 -23 -22 -39 -52
-61 -113 -95 -175 -103 -185 -4 -5 -38 -68 -75 -140 -106 -203 -157 -299 -165
-310 -13 -18 -140 -296 -140 -305 0 -6 502 -10 1380 -10 l1380 0 0 945 c0 932
0 945 -20 965 -11 11 -25 20 -31 20 -6 0 -9 9 -6 20 4 15 -2 24 -24 35 -33 18
-38 30 -9 22 13 -3 21 1 25 14 4 10 11 19 16 19 5 0 9 10 9 23 0 12 9 28 20
35 20 12 20 23 20 672 l0 660 -30 0 c-16 0 -30 5 -30 11 0 12 -107 3 -125 -11
-5 -4 -38 -10 -73 -13 -37 -3 -71 -12 -81 -21 -10 -9 -26 -16 -37 -16 -11 0
-25 -5 -32 -12 -9 -9 -24 -8 -64 6 -60 21 -104 57 -112 92 -4 13 -10 24 -15
24 -11 0 -5 88 7 103 22 26 25 91 6 135 -10 23 -22 42 -26 42 -4 0 -19 25 -33
55 -15 30 -31 53 -36 50 -8 -6 -14 26 -9 50 8 41 1 187 -10 200 -9 11 -10 19
-1 28 17 21 -10 51 -37 43 -12 -4 -22 -14 -22 -22 0 -8 -5 -14 -11 -14 -6 0
-9 -9 -6 -20 3 -11 2 -20 -2 -20 -4 0 -5 -16 -3 -35 3 -27 0 -36 -14 -42 -11
-4 -24 -13 -29 -20 -7 -9 -21 -11 -43 -7 -27 5 -32 11 -32 35 0 16 7 32 16 37
20 11 10 32 -16 32 -10 0 -20 4 -22 10 -1 5 -23 11 -48 14 -66 7 -80 14 -81
47 -1 27 -3 39 -9 57 -1 4 -2 14 -1 22 0 8 -13 30 -29 49 -22 25 -29 40 -24
55 16 52 25 66 39 66 19 0 19 11 0 36 -23 30 -18 53 21 90 l37 34 -99 0 -99 0
-1 -46 c0 -29 -6 -51 -16 -58 -47 -35 -90 -79 -99 -103 -13 -35 -14 -139 -1
-156 5 -6 15 -30 22 -52 7 -22 16 -44 21 -49 5 -6 9 -17 9 -25 0 -32 29 -49
75 -43 41 4 45 3 45 -17 0 -12 6 -21 15 -21 20 0 19 -29 0 -36 -10 -4 -12 -10
-7 -18 5 -6 8 -22 7 -36 -3 -27 29 -70 52 -70 7 0 13 -5 13 -10 0 -7 6 -7 18
-1 26 14 48 -1 29 -20 -7 -8 -12 -20 -9 -27 2 -6 -3 -12 -12 -12 -9 0 -16 -6
-16 -12 0 -9 -2 -10 -8 -2 -4 7 -29 12 -57 12 -72 0 -75 0 -75 17 0 9 -7 18
-15 21 -10 4 -13 14 -8 32 5 23 4 24 -18 19 -13 -4 -30 -7 -38 -7 -11 0 -11
-3 -1 -15 14 -17 5 -36 -15 -28 -8 3 -15 0 -15 -7 0 -6 -4 -8 -10 -5 -5 3 -25
-10 -45 -30 -37 -39 -55 -39 -55 1 0 13 -4 24 -9 24 -5 0 -15 16 -21 36 -7 19
-18 38 -26 41 -8 3 -14 15 -14 27 0 12 -17 35 -40 55 -22 19 -40 39 -40 46 0
6 -9 20 -20 30 -11 10 -20 24 -20 31 0 6 -20 24 -45 38 -25 15 -45 33 -45 41
0 8 -7 16 -15 16 -24 2 -29 4 -44 13 -8 5 -28 11 -45 13 -17 2 -37 4 -43 5 -7
1 -13 8 -13 15 0 8 -4 12 -9 9 -5 -3 -28 1 -52 9 -24 9 -62 18 -84 21 -22 2
-54 9 -71 14 -36 12 -95 20 -189 26 -128 7 -179 3 -283 -22 -57 -14 -110 -23
-117 -20 -10 3 -12 0 -8 -11 5 -13 1 -15 -21 -11 -15 3 -45 -1 -67 -9 -37 -12
-44 -12 -73 5 -23 13 -32 26 -34 51 -2 18 -21 59 -43 91 -41 60 -46 79 -28
111 5 11 13 40 16 64 5 43 4 45 -21 45 -14 0 -26 -3 -26 -7 0 -5 -19 -20 -43
-35 -37 -23 -65 -32 -127 -41 -8 -2 -21 -6 -27 -10 -14 -9 -37 2 -100 45 l-42
28 -15 -27 c-8 -16 -22 -41 -30 -58 -18 -38 -72 -71 -90 -56 -18 15 -76 -6
-76 -27 0 -10 -18 -43 -40 -75 -47 -67 -49 -85 -15 -121 14 -15 25 -32 25 -39
0 -7 18 8 40 33 21 25 39 40 40 34 0 -7 21 -4 58 9 64 22 110 13 119 -23 3
-11 21 -27 39 -36 20 -10 34 -24 34 -34 0 -10 6 -21 13 -23 9 -4 8 -8 -3 -16
-9 -6 -10 -11 -3 -11 7 0 11 -15 10 -40 -1 -25 -6 -40 -14 -40 -7 0 -13 -4
-13 -10 0 -5 -9 -10 -20 -10 -11 0 -23 -7 -26 -15 -4 -8 -10 -15 -16 -15 -5 0
-6 5 -3 10 3 6 1 10 -4 10 -6 0 -11 -6 -11 -14 0 -16 -21 -26 -55 -26 -26 0
-105 39 -105 52 0 4 -6 8 -13 8 -8 0 -22 9 -32 20 -10 11 -24 20 -32 20 -8 0
-13 12 -13 31 l0 32 -25 -37 c-14 -20 -25 -43 -25 -49 0 -7 -4 -17 -9 -23 -20
-20 -16 -58 6 -69 13 -7 31 -19 41 -28 10 -10 23 -17 29 -17 5 0 18 -9 28 -20
10 -11 31 -20 47 -20 15 0 28 -4 28 -10 0 -5 12 -10 28 -10 38 0 102 -19 102
-30 0 -5 7 -6 17 -3 10 4 14 2 9 -5 -3 -6 2 -13 12 -16 10 -3 24 -22 31 -41 7
-20 17 -33 22 -30 5 4 9 -12 9 -34 0 -31 -7 -47 -34 -75 -18 -20 -41 -36 -50
-36 -9 0 -16 -4 -16 -10 0 -15 -66 -12 -106 5 -19 8 -53 13 -76 11 -51 -4 -85
3 -66 15 19 13 -42 11 -80 -2 -25 -8 -38 -7 -73 10 -25 12 -51 18 -65 15 -29
-7 -32 -24 -5 -24 11 0 23 -6 28 -12 11 -18 12 -67 2 -74 -5 -3 -7 -10 -4 -15
4 -5 -1 -9 -10 -9 -9 0 -13 -5 -10 -10 4 -6 1 -17 -5 -25 -7 -8 -10 -26 -8
-40 4 -19 -2 -31 -23 -49 -15 -13 -26 -26 -24 -28 2 -2 -14 -3 -35 -3 -21 0
-38 -2 -38 -5 1 -18 -4 -23 -12 -10 -15 24 -21 6 -8 -27 10 -26 8 -36 -9 -70
-12 -22 -20 -50 -18 -64 1 -13 0 -16 -2 -6 -5 20 -19 23 -26 5 -4 -10 -8 -10
-15 1 -8 11 -15 9 -36 -14 -14 -15 -26 -31 -26 -35 0 -14 -61 3 -84 25 -27 25
-26 55 2 88 14 16 14 21 -3 55 -10 20 -17 43 -16 50 1 8 -7 16 -19 19 -19 5
-20 7 -5 23 15 17 15 19 -6 34 -13 8 -20 18 -16 22 3 4 2 15 -4 26 -11 20 5
89 19 86 4 -1 22 6 40 15 20 11 50 17 77 16 34 -2 50 2 68 19 13 12 31 22 41
22 10 0 20 9 23 20 3 11 13 20 22 21 15 0 15 1 0 11 -15 10 -14 15 7 46 30 44
32 88 4 97 -14 4 -20 15 -20 34 0 15 -6 33 -12 40 -11 10 -10 12 1 9 22 -5 26
34 5 49 -41 30 -27 186 23 252 19 24 27 49 30 87 4 54 3 54 -27 61 -24 4 -30
10 -27 24 3 10 0 20 -7 22 -6 3 0 9 14 15 24 10 24 11 3 11 -17 1 -23 7 -23
22 0 18 -5 21 -39 17 -30 -3 -37 0 -33 11 3 9 1 12 -6 7 -6 -3 -27 5 -47 18
-30 21 -49 25 -108 26 -62 0 -99 3 -129 9 -3 0 -4 9 -2 19 4 13 -5 20 -40 31
-24 7 -54 10 -65 6 -12 -3 -21 -3 -21 2 0 14 -52 33 -90 33 -30 0 -39 -5 -48
-25z m1748 -455 c0 -5 -12 -10 -27 -9 l-28 1 25 8 c14 4 26 8 28 9 1 1 2 -3 2
-9z m-40 -24 c0 -2 -7 -9 -15 -16 -12 -10 -15 -10 -15 4 0 9 7 16 15 16 8 0
15 -2 15 -4z m-80 -86 c0 -5 -5 -10 -11 -10 -5 0 -7 5 -4 10 3 6 8 10 11 10 2
0 4 -4 4 -10z m1988 -7 c14 -27 22 -78 14 -88 -4 -6 -14 -15 -23 -22 -13 -11
-15 -7 -13 27 1 29 -2 40 -12 40 -18 0 -19 46 -1 53 21 9 26 8 35 -10z m-2968
-93 c0 -5 -4 -10 -10 -10 -5 0 -10 5 -10 10 0 6 5 10 10 10 6 0 10 -4 10 -10z
m2013 -96 c28 -20 54 -38 56 -40 2 -2 6 -33 8 -70 4 -45 2 -65 -5 -60 -7 4 -9
-3 -6 -20 3 -14 1 -23 -4 -20 -4 3 -7 -14 -5 -37 2 -23 -2 -52 -8 -64 -7 -12
-8 -29 -4 -40 5 -10 7 -21 7 -25 -1 -5 3 -8 9 -8 6 0 9 -7 5 -15 -3 -8 0 -15
7 -16 9 0 9 -2 0 -6 -22 -8 -14 -23 12 -23 14 0 25 -6 25 -13 0 -16 33 -44 46
-40 6 2 11 -10 11 -27 0 -19 -6 -31 -16 -34 -47 -13 -104 -17 -133 -8 -18 6
-46 13 -62 17 -23 5 -27 8 -15 16 11 7 8 9 -11 9 -20 0 -22 2 -10 10 12 8 12
10 -5 10 -16 0 -17 2 -6 9 12 8 9 11 -12 17 -16 3 -31 4 -34 0 -3 -3 -12 -1
-20 6 -7 6 -17 8 -20 4 -4 -4 -1 -11 6 -15 9 -6 10 -11 2 -15 -6 -4 -11 -2
-11 5 0 7 -3 10 -6 6 -3 -3 -26 1 -50 8 -63 19 -225 -6 -246 -38 -3 -6 -14
-12 -24 -13 -15 -2 -51 -17 -72 -30 -2 -1 4 -13 12 -27 16 -24 16 -24 -21 -31
-75 -12 -88 -9 -101 27 -11 30 -17 34 -84 49 -81 19 -172 10 -193 -19 -6 -9
-28 -17 -49 -19 -21 -2 -46 -6 -56 -9 -24 -8 -28 32 -25 250 2 234 17 266 121
260 32 -2 64 1 70 6 7 5 38 12 69 14 48 3 63 0 95 -21 22 -14 43 -23 49 -20 5
4 12 2 16 -4 13 -22 115 3 115 29 0 12 118 44 247 65 11 2 30 7 41 10 11 4 38
3 60 -3 31 -6 48 -5 69 6 15 8 44 18 63 23 19 4 36 8 38 9 1 1 26 -15 55 -35z
m-1197 -172 c-12 -11 -17 7 -9 34 l8 29 3 -28 c2 -16 1 -31 -2 -35z m4 -43 c0
-5 -4 -9 -10 -9 -5 0 -10 7 -10 16 0 8 5 12 10 9 6 -3 10 -10 10 -16z m-1172
-86 c-2 -10 -10 -17 -16 -15 -7 1 -12 -5 -12 -13 0 -8 -4 -15 -10 -15 -5 0
-10 12 -10 26 0 14 4 23 9 19 5 -3 12 -1 16 5 10 17 27 11 23 -7z m9 -55 c-3
-8 -6 -5 -6 6 -1 11 2 17 5 13 3 -3 4 -12 1 -19z m1972 -202 c-2 -2 -22 -6
-44 -9 -28 -5 -34 -4 -20 3 19 8 73 14 64 6z m121 -28 c0 -6 -2 -9 -6 -6 -3 3
-21 2 -40 -2 -32 -7 -51 -1 -37 14 11 11 83 7 83 -6z m307 -44 c-3 -3 -12 -4
-19 -1 -8 3 -5 6 6 6 11 1 17 -2 13 -5z m-321 -63 c48 -12 51 -25 7 -34 -36
-7 -95 13 -89 30 3 7 1 15 -5 19 -6 4 -3 14 8 26 17 19 18 19 26 -5 6 -19 19
-28 53 -36z m354 55 c0 -3 -4 -8 -10 -11 -5 -3 -10 -1 -10 4 0 6 5 11 10 11 6
0 10 -2 10 -4z m-1080 -36 c0 -5 -4 -10 -10 -10 -5 0 -10 5 -10 10 0 6 5 10
10 10 6 0 10 -4 10 -10z m1309 -188 c0 -13 -3 -20 -9 -17 -5 3 -9 27 -9 53 1
42 2 44 9 17 4 -16 8 -40 9 -53z m50 1 c8 -39 7 -51 -5 -63 -12 -12 -14 -10
-14 17 0 17 -5 33 -11 35 -12 4 -2 58 11 58 5 0 13 -21 19 -47z m-23 -110
c-10 -10 -19 5 -10 18 6 11 8 11 12 0 2 -7 1 -15 -2 -18z m-183 -10 c-7 -2
-13 -17 -13 -33 0 -22 6 -30 31 -39 17 -6 28 -15 24 -21 -5 -8 -11 -8 -21 1
-7 6 -20 9 -27 6 -10 -4 -14 6 -15 35 -2 44 3 58 21 57 9 0 9 -2 0 -6z m17
-143 c0 -5 -5 -10 -11 -10 -5 0 -7 5 -4 10 3 6 8 10 11 10 2 0 4 -4 4 -10z
m1335 -79 c3 -5 1 -12 -5 -16 -5 -3 -10 1 -10 9 0 18 6 21 15 7z m-1511 -74
c-3 -18 -10 -44 -16 -60 -9 -22 -13 -25 -25 -15 -10 8 -13 22 -9 42 4 17 7 38
8 46 0 8 5 21 11 28 17 21 37 -5 31 -41z m296 -280 c0 -16 -9 -28 -25 -35 -15
-7 -25 -8 -25 -2 0 6 7 10 16 10 9 0 14 8 13 18 -2 26 0 32 11 32 6 0 10 -11
10 -23z m-1050 -431 c0 -3 -4 -8 -10 -11 -5 -3 -10 -1 -10 4 0 6 5 11 10 11 6
0 10 -2 10 -4z m-20 -35 c0 -16 -48 -66 -56 -59 -4 4 6 21 22 37 34 34 34 34
34 22z m-56 -70 c3 -4 -3 -27 -14 -49 -11 -23 -20 -45 -20 -51 0 -5 -4 -11 -8
-13 -4 -1 -18 -30 -31 -63 -59 -154 -84 -223 -93 -253 -5 -19 -11 -32 -14 -29
-5 4 62 221 77 250 6 11 6 17 -1 17 -5 0 -9 11 -8 25 1 14 9 25 16 25 9 0 12
-6 8 -16 -3 -9 -2 -12 5 -9 5 4 7 15 4 26 -4 10 -3 19 2 19 4 0 13 11 20 25
13 29 11 30 -22 9 -30 -20 -34 -1 -4 19 13 9 16 17 10 22 -6 3 -27 -6 -46 -21
-19 -14 -35 -23 -35 -20 0 8 -73 -45 -78 -56 -2 -5 -11 -8 -20 -8 -15 0 -15
-2 -2 -10 12 -8 11 -10 -8 -10 -12 0 -34 -7 -47 -16 -14 -9 -25 -12 -25 -8 0
5 -6 -2 -13 -15 -6 -13 -16 -24 -22 -24 -5 0 -16 -7 -23 -14 -8 -7 -18 -11
-23 -8 -5 4 -9 1 -9 -5 0 -7 -6 -10 -13 -7 -8 3 -20 -3 -27 -13 -7 -10 -20
-16 -27 -13 -12 5 -12 7 -1 14 10 7 9 9 -4 9 -9 0 -24 -7 -32 -16 -9 -8 -16
-13 -16 -9 0 3 -16 -10 -35 -29 -33 -33 -85 -61 -71 -37 4 6 2 11 -3 11 -6 0
-11 -4 -11 -10 0 -5 -5 -10 -12 -10 -6 0 -22 -10 -35 -22 -20 -19 -25 -20 -33
-8 -7 12 -15 9 -42 -15 -18 -17 -36 -34 -40 -40 -5 -6 -8 -6 -8 1 0 6 7 17 15
24 8 7 15 18 15 25 0 15 74 59 134 79 75 26 397 187 486 245 79 50 153 91 167
91 6 0 14 -4 17 -9z m2031 -171 c10 -11 14 -20 9 -20 -5 0 -15 9 -22 20 -7 11
-11 20 -9 20 2 0 12 -9 22 -20z m125 -100 c32 -32 23 -47 -10 -15 -16 16 -30
30 -30 32 0 10 23 0 40 -17z m-2655 -49 c-3 -6 -14 -11 -23 -11 -15 1 -15 2 2
15 21 16 32 13 21 -4z m2710 -1 c3 -6 -1 -7 -9 -4 -18 7 -21 14 -7 14 6 0 13
-4 16 -10z m-2749 -35 c-21 -16 -32 -13 -21 4 3 6 14 11 23 11 15 -1 15 -2 -2
-15z m-43 -42 c-7 -2 -19 -2 -25 0 -7 3 -2 5 12 5 14 0 19 -2 13 -5z m-276
-51 c-46 -47 -142 -224 -162 -297 -4 -16 -9 -25 -12 -18 -5 14 62 177 88 214
10 15 19 32 19 37 0 14 90 112 103 112 6 0 -10 -22 -36 -48z m103 18 c0 -5 -8
-10 -17 -10 -15 0 -16 2 -3 10 19 12 20 12 20 0z m-75 -100 c4 -6 -6 -10 -22
-9 -25 0 -26 1 -8 9 11 5 21 9 22 9 1 1 5 -3 8 -9z m598 -125 c-7 -21 -12 -19
-10 4 0 11 5 18 9 15 4 -3 5 -11 1 -19z m-831 -350 c-2 -19 -8 -35 -13 -35 -5
0 -6 -6 -3 -14 3 -8 1 -17 -5 -21 -6 -3 -11 -15 -11 -26 0 -10 -4 -19 -9 -19
-11 0 6 70 20 85 5 5 9 22 9 37 0 15 4 28 8 28 4 0 6 -16 4 -35z m-75 -247
c-3 -7 -5 -2 -5 12 0 14 2 19 5 13 2 -7 2 -19 0 -25z m-16 -119 l-10 -34 4 40
c2 22 5 51 6 65 2 21 3 19 6 -6 2 -18 0 -47 -6 -65z m-14 -76 c-3 -10 -5 -4
-5 12 0 17 2 24 5 18 2 -7 2 -21 0 -30z m-10 -70 c-3 -10 -5 -4 -5 12 0 17 2
24 5 18 2 -7 2 -21 0 -30z m-11 -79 c-12 -32 -15 -35 -15 -14 -1 38 10 73 20
63 6 -6 3 -26 -5 -49z"/>
<path d="M2708 3253 c6 -2 18 -2 25 0 6 3 1 5 -13 5 -14 0 -19 -2 -12 -5z"/>
<path d="M1770 1700 c-26 -16 -3 -22 27 -6 23 13 24 15 8 15 -11 1 -27 -3 -35
-9z"/>
<path d="M1105 1351 c-3 -5 -1 -12 4 -15 5 -3 11 1 15 9 6 16 -9 21 -19 6z"/>
<path d="M650 4419 c0 -5 5 -7 10 -4 6 3 10 8 10 11 0 2 -4 4 -10 4 -5 0 -10
-5 -10 -11z"/>
<path d="M676 4355 c4 -8 7 -15 9 -15 2 0 5 7 9 15 3 9 0 15 -9 15 -9 0 -12
-6 -9 -15z"/>
<path d="M3520 3826 c0 -9 5 -16 10 -16 6 0 10 4 10 9 0 6 -4 13 -10 16 -5 3
-10 -1 -10 -9z"/>
<path d="M400 3410 c0 -5 5 -10 11 -10 5 0 7 5 4 10 -3 6 -8 10 -11 10 -2 0
-4 -4 -4 -10z"/>
<path d="M610 3196 c0 -9 5 -16 10 -16 6 0 10 4 10 9 0 6 -4 13 -10 16 -5 3
-10 -1 -10 -9z"/>
<path d="M458 3163 c7 -3 16 -2 19 1 4 3 -2 6 -13 5 -11 0 -14 -3 -6 -6z"/>
<path d="M495 3130 c3 -5 10 -10 16 -10 5 0 9 5 9 10 0 6 -7 10 -16 10 -8 0
-12 -4 -9 -10z"/>
<path d="M1023 2736 c-4 -12 -6 -25 -5 -29 1 -5 -4 -30 -12 -58 -14 -47 -14
-49 4 -49 11 0 24 9 30 20 6 11 18 20 27 20 10 0 14 6 10 20 -3 11 -1 23 4 26
5 3 9 20 9 38 0 30 -3 33 -30 33 -21 0 -32 -6 -37 -21z"/>
<path d="M1538 2596 c-46 -54 -68 -90 -68 -107 0 -24 5 -27 44 -33 46 -7 65
-22 71 -53 1 -10 8 -17 14 -15 6 1 11 -6 12 -15 0 -15 2 -15 9 2 8 19 9 19 9
1 1 -15 4 -16 16 -6 12 10 15 10 15 -4 0 -9 4 -16 10 -16 6 0 6 9 1 23 -5 12
-18 77 -30 145 -12 68 -25 131 -29 141 -6 15 -19 4 -74 -63z"/>
<path d="M2420 2657 c0 -8 7 -17 15 -21 8 -3 15 -2 15 3 0 5 -7 14 -15 21 -12
10 -15 10 -15 -3z"/>
<path d="M1776 2618 c-9 -12 -16 -31 -16 -41 0 -14 7 -10 30 16 17 19 30 37
30 41 0 15 -30 4 -44 -16z"/>
<path d="M1666 2597 c3 -10 9 -15 12 -12 3 3 0 11 -7 18 -10 9 -11 8 -5 -6z"/>
<path d="M2378 2590 c-4 -13 -26 -14 -134 -12 -97 2 -138 0 -164 -11 -22 -10
-52 -13 -80 -10 -31 3 -61 -1 -97 -15 -28 -11 -63 -17 -77 -15 -22 5 -26 2
-26 -17 0 -20 4 -22 34 -17 18 3 38 2 42 -3 5 -5 25 -9 44 -11 57 -3 70 0 64
16 -5 12 3 15 39 15 24 0 65 3 91 6 44 6 46 6 44 -17 -3 -20 3 -24 40 -31 46
-8 139 5 156 22 6 6 19 10 31 10 30 0 43 12 50 45 4 17 3 25 -2 18 -10 -13
-37 3 -45 27 -4 13 -5 13 -10 0z"/>
<path d="M3300 2556 c0 -8 5 -18 10 -21 6 -3 10 1 10 9 0 8 -4 18 -10 21 -5 3
-10 -1 -10 -9z"/>
<path d="M3283 2530 c2 -8 12 -16 23 -17 13 -2 15 -1 4 4 -8 3 -19 11 -23 17
-6 7 -7 6 -4 -4z"/>
<path d="M2083 2376 c4 -10 -2 -16 -15 -18 -12 -2 -23 -9 -26 -17 -4 -11 6
-12 54 -6 60 7 100 22 90 33 -4 3 -12 0 -18 -6 -7 -7 -19 -12 -27 -12 -14 0
-14 2 -1 11 12 8 11 9 -6 4 -14 -4 -24 0 -28 10 -3 8 -10 15 -17 15 -6 0 -9
-6 -6 -14z"/>
<path d="M3468 1843 c6 -2 18 -2 25 0 6 3 1 5 -13 5 -14 0 -19 -2 -12 -5z"/>
<path d="M2520 1820 c0 -5 5 -10 10 -10 6 0 10 5 10 10 0 6 -4 10 -10 10 -5 0
-10 -4 -10 -10z"/>
<path d="M2235 1760 c-8 -13 5 -13 25 0 13 8 13 10 -2 10 -9 0 -20 -4 -23 -10z"/>
<path d="M2346 1695 c-10 -7 -16 -19 -14 -26 2 -7 11 0 21 15 20 30 19 31 -7
11z"/>
<path d="M1927 1650 c-32 -241 -33 -294 -7 -320 18 -18 19 -18 18 11 -2 50 8
42 26 -23 29 -101 35 -110 35 -51 1 28 -6 87 -15 130 -9 43 -24 128 -33 188
-16 102 -18 107 -24 65z"/>
<path d="M2305 1670 c-3 -5 -1 -10 4 -10 6 0 11 5 11 10 0 6 -2 10 -4 10 -3 0
-8 -4 -11 -10z"/>
<path d="M1795 1270 c4 -6 11 -8 16 -5 14 9 11 15 -7 15 -8 0 -12 -5 -9 -10z"/>
</g>
</svg>
